<?xml version="1.0" standalone="no"?>
<!DOCTYPE svg PUBLIC "-//W3C//DTD SVG 20010904//EN"
 "http://www.w3.org/TR/2001/REC-SVG-20010904/DTD/svg10.dtd">
<svg version="1.0" xmlns="http://www.w3.org/2000/svg"
 width="1280.000000pt" height="1225.000000pt" viewBox="0 0 1280.000000 1225.000000"
 preserveAspectRatio="xMidYMid meet">
<g transform="translate(0.000000,1225.000000) scale(0.100000,-0.100000)"
fill="#000000" stroke="none">
<path d="M3560 10900 c-1559 -736 -2843 -1344 -2852 -1350 -16 -9 -18 -31 -18
-220 l0 -210 5710 0 5710 0 0 209 c0 155 -3 211 -12 218 -12 9 -5661 2678
-5689 2688 -8 2 -1290 -598 -2849 -1335z"/>
<path d="M1795 8887 c-3 -6 -4 -165 -3 -352 l3 -340 4605 0 4605 0 0 350 0
350 -4603 3 c-3690 2 -4604 0 -4607 -11z"/>
<path d="M2216 7958 c-3 -7 -9 -240 -15 -518 -7 -278 -16 -671 -21 -875 -5
-203 -14 -554 -20 -780 -6 -225 -15 -588 -20 -805 -5 -217 -14 -579 -20 -805
-6 -225 -15 -576 -20 -780 -5 -203 -13 -515 -16 -692 l-7 -323 663 0 663 0 -7
173 c-3 94 -11 334 -16 532 -6 198 -15 513 -20 700 -6 187 -32 1130 -60 2095
-27 965 -52 1830 -56 1923 l-6 167 -509 0 c-399 0 -510 -3 -513 -12z"/>
<path d="M4656 7898 c-3 -40 -10 -280 -16 -533 -10 -432 -78 -3196 -100 -4030
-5 -209 -13 -509 -16 -668 l-7 -287 661 0 662 0 0 48 c0 26 -7 272 -15 547 -8
275 -19 662 -25 860 -10 344 -19 649 -40 1400 -5 187 -14 502 -20 700 -6 198
-15 511 -20 695 -5 184 -14 506 -20 715 -5 209 -13 435 -16 503 l-6 122 -508
0 -508 0 -6 -72z"/>
<path d="M7096 7838 c-3 -73 -11 -329 -16 -568 -6 -239 -15 -610 -20 -825 -5
-214 -14 -571 -20 -792 -5 -222 -14 -582 -20 -800 -5 -219 -14 -582 -20 -808
-6 -225 -15 -583 -20 -795 -5 -212 -13 -494 -16 -627 l-7 -243 662 0 661 0 0
38 c1 92 -151 5434 -156 5490 l-6 62 -508 0 -508 0 -6 -132z"/>
<path d="M9536 7778 c-4 -106 -11 -374 -16 -595 -6 -222 -14 -583 -20 -803 -5
-220 -14 -580 -20 -800 -5 -220 -14 -580 -20 -800 -5 -220 -14 -580 -20 -800
-5 -220 -14 -581 -20 -802 -5 -222 -12 -492 -16 -601 l-7 -197 662 0 661 0 0
58 c1 98 -152 5506 -156 5520 -3 9 -114 12 -512 12 l-510 0 -6 -192z"/>
<path d="M1235 2148 c-3 -7 -6 -168 -7 -358 l-3 -345 -305 -5 -305 -5 -3 -354
c-2 -269 -5 -357 -15 -363 -6 -4 -144 -8 -304 -8 l-293 0 0 -355 0 -355 6400
0 6400 0 0 355 0 355 -289 0 c-159 0 -296 3 -305 6 -14 5 -16 46 -16 359 0
313 -2 354 -16 359 -9 3 -148 6 -310 6 l-294 0 -2 358 -3 357 -5163 3 c-4125
2 -5164 0 -5167 -10z"/>
</g>
</svg>
